# xmcd
#
# Track frame offsets:
#	150
#	19296
#	32023
#	37667
#	53227
#	66826
#	74544
#	104276
#	116954
#	140077
#	149934
#	157103
#	159447
#	174032
#	194199
#	198588
#	204953
#	211363
#	231667
#
# Disc length: 3564 seconds
#
# Revision: 0
# Processed by: cddbd v1.4PL0 Copyright (c) Steve Scherf et al.
# Submitted via: EasyCDDAExtractor 4.6.9.1
#
DISCID=2d0dea13
DTITLE=이동준 - 난타
DYEAR=2002
DGENRE=Acoustic
TTITLE0=Prologue
TTITLE1=Opening
TTITLE2=Nephew
TTITLE3=Nanta Theme
TTITLE4=Cooking Show A
TTITLE5=Cooking Show B
TTITLE6=Doma
TTITLE7=Kungfu
TTITLE8=Magic
TTITLE9=Mandu
TTITLE10=Cake
TTITLE11=6 O'clock
TTITLE12=Samgomu
TTITLE13=Ending A
TTITLE14=Ending B
TTITLE15=Encore
TTITLE16=Encore(MR)-Bonus
TTITLE17=Are You Ready?-Bonus
TTITLE18=Doma(Live Version)-Bonus
EXTD=
EXTT0=
EXTT1=
EXTT2=
EXTT3=
EXTT4=
EXTT5=
EXTT6=
EXTT7=
EXTT8=
EXTT9=
EXTT10=
EXTT11=
EXTT12=
EXTT13=
EXTT14=
EXTT15=
EXTT16=
EXTT17=
EXTT18=
PLAYORDER=
